<?xml version="1.0" encoding="utf-8"?>
<!-- Generator: Adobe Illustrator 24.3.0, SVG Export Plug-In . SVG Version: 6.00 Build 0)  -->
<svg version="1.1" id="Capa_1" xmlns="http://www.w3.org/2000/svg" xmlns:xlink="http://www.w3.org/1999/xlink" x="0px" y="0px"
	 viewBox="0 0 463 463" style="enable-background:new 0 0 463 463;" xml:space="preserve">
<g>
	<path d="M151.2,222.4C148.1,237,135,248,119.5,248c-4.1,0-7.5,3.4-7.5,7.5s3.4,7.5,7.5,7.5c23.8,0,43.5-17.6,47-40.4
		c14.6-1.6,28-8.1,38.4-18.7c2.9-3,2.9-7.7-0.1-10.6c-3-2.9-7.7-2.9-10.6,0.1c-9.2,9.4-21.5,14.6-34.6,14.6
		c-26.7,0-48.5-21.8-48.5-48.5c0-4.1-3.4-7.5-7.5-7.5s-7.5,3.4-7.5,7.5C96,191.7,120.1,218.4,151.2,222.4z" fill="white"/>
	<path d="M183,287.5c0-4.1-3.4-7.5-7.5-7.5c-35,0-63.5,28.5-63.5,63.5c0,0.4,0,0.7,0,1.1c-2.8-0.4-5.6-0.6-8.5-0.6
		c-4.1,0-7.5,3.4-7.5,7.5s3.4,7.5,7.5,7.5c26.7,0,48.5,21.8,48.5,48.5c0,4.1,3.4,7.5,7.5,7.5s7.5-3.4,7.5-7.5
		c0-26.6-16.5-49.4-39.7-58.9c-0.2-1.7-0.3-3.4-0.3-5.1c0-26.7,21.8-48.5,48.5-48.5C179.6,295,183,291.6,183,287.5z" fill="white"/>
	<path d="M439,223.5c0-17.1-6.8-33.3-18.9-45.2c1.9-6.1,2.9-12.4,2.9-18.8c0-30.9-22.2-56.7-51.4-62.3c2.2-5.6,3.4-11.5,3.4-17.7
		c0-19.6-11.9-36.4-28.8-43.7C318,13.4,287.2,0,263.5,0c-13.2,0-24.8,6.5-32,16.4C224.3,6.5,212.7,0,199.5,0
		c-23.7,0-54.5,13.4-82.7,35.8C99.9,43.1,88,59.9,88,79.5c0,6.1,1.2,12.1,3.4,17.7C62.2,102.8,40,128.6,40,159.5
		c0,6.4,1,12.7,2.9,18.8C30.8,190.2,24,206.4,24,223.5c0,13.3,4.1,25.7,11.2,36c-7.3,10.6-11.2,23-11.2,36
		c0,23.1,12.6,44.2,32.5,55.4c-0.3,2.9-0.5,5.7-0.5,8.6c0,31.1,20.3,58.7,49.8,68.1c12.8,21.9,36.2,35.4,61.7,35.4
		c28,0,52.3-16.2,64-39.7c11.7,23.5,36,39.7,64,39.7c25.5,0,48.9-13.5,61.7-35.4c29.5-9.4,49.8-36.9,49.8-68.1
		c0-2.9-0.2-5.8-0.5-8.6c19.9-11.2,32.5-32.3,32.5-55.4c0-13-3.9-25.4-11.2-36C434.9,249.2,439,236.8,439,223.5z M167.5,448
		c-21,0-40.2-11.6-50-30.3c-1-1.8-2.7-3.2-4.7-3.8C88.2,407.4,71,385,71,359.5c0-3.8,0.4-7.6,1.1-11.3c0.7-3.4-1.1-6.9-4.3-8.4
		C50.3,332,39,314.6,39,295.5c0-8.7,2.3-17,6.6-24.4C56.8,281,71.4,287,87.5,287c4.1,0,7.5-3.4,7.5-7.5s-3.4-7.5-7.5-7.5
		C60.8,272,39,250.2,39,223.5c0-14.4,6.4-28,17.4-37.2c2.5-2.1,3.4-5.6,2.1-8.6c-2.4-5.8-3.6-12-3.6-18.2
		c0-26.7,21.8-48.5,48.5-48.5s48.5,21.8,48.5,48.5c0,4.1,3.4,7.5,7.5,7.5s7.5-3.4,7.5-7.5c0-33.6-26.3-61.2-59.4-63.4
		c-3-5-4.6-10.7-4.6-16.6c0-13.4,8.1-24.9,19.7-29.9c0.4-0.1,0.9-0.3,1.3-0.5c3.6-1.4,7.5-2.1,11.5-2.1c12.6,0,23.8,7,29.3,18.3
		c1.8,3.7,6.3,5.3,10,3.5c3.7-1.8,5.3-6.3,3.5-10c-6.3-12.9-18.1-22.2-31.8-25.5c19.1-11.7,38-18.3,53-18.3C213,15,224,26,224,39.5
		v97.1c-6.7-5.3-15.2-8.6-24.5-8.6c-4.1,0-7.5,3.4-7.5,7.5s3.4,7.5,7.5,7.5c13.5,0,24.5,11,24.5,24.5v180.3
		c-9.3-12-22.5-21.1-37.9-25.3c-4-1.1-8.1,1.3-9.2,5.3c-1.1,4,1.3,8.1,5.3,9.2c24.6,6.6,41.8,29,41.8,54.5
		C224,422.7,198.7,448,167.5,448z M395.2,339.8c-3.2,1.4-5,4.9-4.3,8.4c0.8,3.7,1.1,7.5,1.1,11.3c0,25.5-17.2,47.9-41.8,54.5
		c-2,0.5-3.7,1.9-4.7,3.8c-9.8,18.7-29,30.3-50,30.3c-31.2,0-56.5-25.3-56.5-56.5c0-2.1-0.1-4.2-0.3-6.3c0.2-0.6,0.3-1.3,0.3-2
		V135.5c0-13.5,11-24.5,24.5-24.5c4.1,0,7.5-3.4,7.5-7.5s-3.4-7.5-7.5-7.5c-9.2,0-17.8,3.2-24.5,8.6V39.5C239,26,250,15,263.5,15
		c15,0,33.9,6.6,53,18.3c-13.7,3.3-25.5,12.6-31.8,25.5c-1.8,3.7-0.3,8.2,3.5,10c3.7,1.8,8.2,0.3,10-3.5C303.7,54,314.9,47,327.5,47
		c4.1,0,7.9,0.8,11.5,2.1c0.4,0.2,0.9,0.4,1.3,0.5c11.6,5,19.7,16.5,19.7,29.9c0,5.9-1.6,11.6-4.6,16.6
		c-33.1,2.1-59.4,29.7-59.4,63.4c0,4.1,3.4,7.5,7.5,7.5s7.5-3.4,7.5-7.5c0-26.7,21.8-48.5,48.5-48.5s48.5,21.8,48.5,48.5
		c0,6.2-1.2,12.4-3.6,18.2c-1.2,3-0.4,6.5,2.1,8.6c11.1,9.3,17.4,22.8,17.4,37.2c0,26.7-21.8,48.5-48.5,48.5c-4.1,0-7.5,3.4-7.5,7.5
		s3.4,7.5,7.5,7.5c16.1,0,30.7-6,41.9-15.9c4.3,7.4,6.6,15.7,6.6,24.4C424,314.6,412.7,332,395.2,339.8z" fill="white"/>
	<path d="M359.5,240c-15.5,0-28.6-11-31.7-25.6c31.1-4.1,55.2-30.7,55.2-62.9c0-4.1-3.4-7.5-7.5-7.5s-7.5,3.4-7.5,7.5
		c0,26.7-21.8,48.5-48.5,48.5c-13.1,0-25.4-5.2-34.6-14.6c-2.9-3-7.6-3-10.6-0.1s-3,7.6-0.1,10.6c10.4,10.6,23.8,17.1,38.4,18.7
		c3.4,22.8,23.2,40.4,47,40.4c4.1,0,7.5-3.4,7.5-7.5S363.6,240,359.5,240z" fill="white"/>
	<path d="M335.5,328c-2.9,0-5.7,0.2-8.5,0.6c0-0.4,0-0.7,0-1.1c0-35-28.5-63.5-63.5-63.5c-4.1,0-7.5,3.4-7.5,7.5s3.4,7.5,7.5,7.5
		c26.7,0,48.5,21.8,48.5,48.5c0,1.7-0.1,3.4-0.3,5.1c-23.3,9.4-39.7,32.3-39.7,58.9c0,4.1,3.4,7.5,7.5,7.5s7.5-3.4,7.5-7.5
		c0-26.7,21.8-48.5,48.5-48.5c4.1,0,7.5-3.4,7.5-7.5S339.6,328,335.5,328z" fill="white"/>
</g>
</svg>
